<svg width="180" height="60" viewBox="0 0 180 60" fill="none" xmlns="http://www.w3.org/2000/svg">
  <rect width="180" height="60" rx="16" fill="#F7F8FA"/>
  <rect x="16" y="14" width="14" height="14" fill="#F25022"/>
  <rect x="33" y="14" width="14" height="14" fill="#7FBA00"/>
  <rect x="16" y="31" width="14" height="14" fill="#00A4EF"/>
  <rect x="33" y="31" width="14" height="14" fill="#FFB900"/>
  <path d="M66 22.2H71.736C75.672 22.2 77.46 23.736 77.46 26.76C77.46 29.808 75.648 31.356 71.676 31.356H69.12V38H66V22.2ZM71.424 28.944C73.632 28.944 74.34 28.164 74.34 26.76C74.34 25.38 73.584 24.636 71.4 24.636H69.12V28.944H71.424Z" fill="#111827"/>
  <path d="M82.3448 38.3C79.6928 38.3 77.9648 36.512 77.9648 33.596C77.9648 30.656 79.7768 28.904 82.4168 28.904C85.0808 28.904 86.8568 30.728 86.8568 33.584C86.8568 36.5 85.0928 38.3 82.3448 38.3ZM82.3928 36.056C83.7248 36.056 84.3128 35 84.3128 33.608C84.3128 32.204 83.7248 31.148 82.3928 31.148C81.0728 31.148 80.4968 32.204 80.4968 33.608C80.4968 35 81.0728 36.056 82.3928 36.056Z" fill="#111827"/>
  <path d="M88.1112 29.204H90.6192L91.4952 33.668C91.6632 34.712 91.8312 35.768 92.0112 36.824H92.0832C92.2872 35.768 92.4912 34.7 92.7432 33.668L93.8352 29.204H96.0312L97.1712 33.668C97.4232 34.688 97.6512 35.756 97.8912 36.824H97.9752C98.1432 35.756 98.3112 34.7 98.4912 33.668L99.3672 29.204H101.695L99.1992 38H96.2112L95.2872 34.108C95.0832 33.124 94.8912 32.152 94.6992 31.084H94.6272C94.4472 32.152 94.2672 33.148 94.0512 34.132L93.1632 38H90.2352L88.1112 29.204Z" fill="#111827"/>
  <path d="M106.622 38.3C103.97 38.3 102.086 36.536 102.086 33.608C102.086 30.704 104.15 28.904 106.358 28.904C108.95 28.904 110.15 30.8 110.15 33.248C110.15 33.776 110.09 34.3 110.03 34.552H104.654C104.882 35.932 105.794 36.652 107.042 36.652C107.726 36.652 108.326 36.448 108.926 36.08L109.778 37.616C108.938 38.192 107.87 38.3 106.622 38.3ZM104.618 32.836H107.69C107.69 31.748 107.198 31.064 106.382 31.064C105.65 31.064 104.99 31.592 104.618 32.836Z" fill="#111827"/>
  <path d="M111.716 29.204H114.248L114.464 30.752H114.524C115.16 29.6 116.084 28.904 116.996 28.904C117.488 28.904 117.776 28.976 118.016 29.084L117.596 31.268C117.308 31.184 117.08 31.136 116.696 31.136C116.024 31.136 115.208 31.568 114.68 32.768V38H111.716V29.204Z" fill="#111827"/>
  <path d="M122.974 38.3C120.322 38.3 118.438 36.536 118.438 33.608C118.438 30.704 120.502 28.904 122.71 28.904C125.302 28.904 126.502 30.8 126.502 33.248C126.502 33.776 126.442 34.3 126.382 34.552H121.006C121.234 35.932 122.146 36.652 123.394 36.652C124.078 36.652 124.678 36.448 125.278 36.08L126.13 37.616C125.29 38.192 124.222 38.3 122.974 38.3ZM120.97 32.836H124.042C124.042 31.748 123.55 31.064 122.734 31.064C122.002 31.064 121.342 31.592 120.97 32.836Z" fill="#111827"/>
  <path d="M130.78 38.3C128.68 38.3 127.072 36.584 127.072 33.608C127.072 30.68 128.884 28.904 130.96 28.904C131.98 28.904 132.592 29.288 133.18 29.828L133.072 28.256V24.72H136.024V38H133.612L133.396 37.112H133.324C132.7 37.76 131.812 38.3 130.78 38.3ZM131.548 35.888C132.124 35.888 132.592 35.66 133.072 35.048V31.784C132.592 31.34 132.088 31.184 131.596 31.184C130.624 31.184 130.108 32.096 130.108 33.572C130.108 35.108 130.648 35.888 131.548 35.888Z" fill="#111827"/>
  <path d="M142.554 38.3C141.57 38.3 140.562 37.82 139.854 37.16H139.782L139.554 38H137.246V24.72H140.198V27.9L140.126 29.324C140.822 28.724 141.69 28.904 142.446 28.904C144.594 28.904 145.962 30.68 145.962 33.44C145.962 36.56 144.114 38.3 142.554 38.3ZM141.894 35.888C142.794 35.888 143.454 35.108 143.454 33.476C143.454 32.024 142.998 31.316 142.086 31.316C141.63 31.316 141.198 31.52 140.198 32.36V35.444C140.642 35.804 141.27 35.888 141.894 35.888Z" fill="#111827"/>
  <path d="M148.129 41.432C147.829 41.432 147.601 41.396 147.361 41.336L147.889 39.128C148.033 39.164 148.177 39.188 148.453 39.188C149.189 39.188 149.641 38.756 149.833 38.24L150.001 37.712L146.645 29.204H149.609L150.809 32.908C151.025 33.632 151.229 34.452 151.445 35.224H151.529C151.709 34.476 151.889 33.656 152.069 32.908L153.029 29.204H155.849L152.837 37.856C152.041 40.004 150.917 41.432 148.129 41.432Z" fill="#111827"/>
</svg>
